REM DIRINDEX 1\2\5,1\2\6,1\2\7,1\2\8,1\3\9,1\3\10,1\3\11,1\4\12,1\4\13,1\4\14,1\4\15,1\4\16
REM DIRNAME folder01,folder02,folder03,folder04,folder05,folder06,folder07,folder08,folder09,folder10,folder11,folder12,folder13,folder14,folder15,folder16
TITLE ""
FILE "1200_sec02_0540_0548.mp3" MP3
  TRACK 01 AUDIO
    TITLE "0:"
    INDEX 01 00:00:00
  TRACK 02 AUDIO
    TITLE "12:cjc034_05805"
    INDEX 01 00:00:17
  TRACK 03 AUDIO
    TITLE "0:"
    INDEX 01 00:01:32
  TRACK 04 AUDIO
    TITLE "13:cjc034_05806"
    INDEX 01 00:01:66
  TRACK 05 AUDIO
    TITLE "0:"
    INDEX 01 00:03:02
  TRACK 06 AUDIO
    TITLE "14:cjc034_05807"
    INDEX 01 00:03:35
  TRACK 07 AUDIO
    TITLE "0:"
    INDEX 01 00:04:50
  TRACK 08 AUDIO
    TITLE "15:cjc034_05808"
    INDEX 01 00:05:07
  TRACK 09 AUDIO
    TITLE "0:"
    INDEX 01 00:08:46
  TRACK 10 AUDIO
    TITLE "12:cjc034_05809"
    INDEX 01 00:10:04
  TRACK 11 AUDIO
    TITLE "0:"
    INDEX 01 00:11:11
  TRACK 12 AUDIO
    TITLE "13:cjc034_05810"
    INDEX 01 00:11:40
  TRACK 13 AUDIO
    TITLE "0:"
    INDEX 01 00:12:56
  TRACK 14 AUDIO
    TITLE "14:cjc034_05811"
    INDEX 01 00:13:10
  TRACK 15 AUDIO
    TITLE "0:"
    INDEX 01 00:14:17
  TRACK 16 AUDIO
    TITLE "15:cjc034_05812"
    INDEX 01 00:14:49
  TRACK 17 AUDIO
    TITLE "0:"
    INDEX 01 00:19:07
  TRACK 18 AUDIO
    TITLE "12:cjc034_05813"
    INDEX 01 00:20:39
  TRACK 19 AUDIO
    TITLE "0:"
    INDEX 01 00:21:47
  TRACK 20 AUDIO
    TITLE "13:cjc034_05814"
    INDEX 01 00:22:03
  TRACK 21 AUDIO
    TITLE "0:"
    INDEX 01 00:24:25
  TRACK 22 AUDIO
    TITLE "14:cjc034_05815"
    INDEX 01 00:24:61
  TRACK 23 AUDIO
    TITLE "0:"
    INDEX 01 00:25:68
  TRACK 24 AUDIO
    TITLE "15:cjc034_05816"
    INDEX 01 00:26:24
  TRACK 25 AUDIO
    TITLE "0:"
    INDEX 01 00:30:08
  TRACK 26 AUDIO
    TITLE "12:cjc034_05817"
    INDEX 01 00:31:39
  TRACK 27 AUDIO
    TITLE "0:"
    INDEX 01 00:32:56
  TRACK 28 AUDIO
    TITLE "13:cjc034_05818"
    INDEX 01 00:33:15
  TRACK 29 AUDIO
    TITLE "0:"
    INDEX 01 00:34:47
  TRACK 30 AUDIO
    TITLE "14:cjc034_05819"
    INDEX 01 00:35:06
  TRACK 31 AUDIO
    TITLE "0:"
    INDEX 01 00:36:23
  TRACK 32 AUDIO
    TITLE "15:cjc034_05820"
    INDEX 01 00:36:56
  TRACK 33 AUDIO
    TITLE "0:"
    INDEX 01 00:41:42
  TRACK 34 AUDIO
    TITLE "12:cjc034_05821"
    INDEX 01 00:42:74
  TRACK 35 AUDIO
    TITLE "0:"
    INDEX 01 00:44:14
  TRACK 36 AUDIO
    TITLE "13:cjc034_05822"
    INDEX 01 00:44:52
  TRACK 37 AUDIO
    TITLE "0:"
    INDEX 01 00:47:01
  TRACK 38 AUDIO
    TITLE "14:cjc034_05823"
    INDEX 01 00:47:30
  TRACK 39 AUDIO
    TITLE "0:"
    INDEX 01 00:48:44
  TRACK 40 AUDIO
    TITLE "15:cjc034_05824"
    INDEX 01 00:49:04
  TRACK 41 AUDIO
    TITLE "0:"
    INDEX 01 00:55:50
  TRACK 42 AUDIO
    TITLE "12:cjc034_05825"
    INDEX 01 00:57:09
  TRACK 43 AUDIO
    TITLE "0:"
    INDEX 01 00:58:22
  TRACK 44 AUDIO
    TITLE "13:cjc034_05826"
    INDEX 01 00:58:58
  TRACK 45 AUDIO
    TITLE "0:"
    INDEX 01 01:01:07
  TRACK 46 AUDIO
    TITLE "14:cjc034_05827"
    INDEX 01 01:01:40
  TRACK 47 AUDIO
    TITLE "0:"
    INDEX 01 01:02:55
  TRACK 48 AUDIO
    TITLE "15:cjc034_05828"
    INDEX 01 01:03:14
  TRACK 49 AUDIO
    TITLE "0:"
    INDEX 01 01:08:01
  TRACK 50 AUDIO
    TITLE "12:cjc034_05829"
    INDEX 01 01:09:34
  TRACK 51 AUDIO
    TITLE "0:"
    INDEX 01 01:10:49
  TRACK 52 AUDIO
    TITLE "13:cjc034_05830"
    INDEX 01 01:11:07
  TRACK 53 AUDIO
    TITLE "0:"
    INDEX 01 01:14:02
  TRACK 54 AUDIO
    TITLE "14:cjc034_05831"
    INDEX 01 01:14:33
  TRACK 55 AUDIO
    TITLE "0:"
    INDEX 01 01:15:46
  TRACK 56 AUDIO
    TITLE "15:cjc034_05832"
    INDEX 01 01:16:05
  TRACK 57 AUDIO
    TITLE "0:"
    INDEX 01 01:21:08
  TRACK 58 AUDIO
    TITLE "12:cjc034_05833"
    INDEX 01 01:22:41
  TRACK 59 AUDIO
    TITLE "0:"
    INDEX 01 01:24:02
  TRACK 60 AUDIO
    TITLE "13:cjc034_05834"
    INDEX 01 01:24:36
  TRACK 61 AUDIO
    TITLE "0:"
    INDEX 01 01:29:13
  TRACK 62 AUDIO
    TITLE "14:cjc034_05835"
    INDEX 01 01:29:45
  TRACK 63 AUDIO
    TITLE "0:"
    INDEX 01 01:31:08
  TRACK 64 AUDIO
    TITLE "15:cjc034_05836"
    INDEX 01 01:31:41
  TRACK 65 AUDIO
    TITLE "0:"
    INDEX 01 01:35:35
  TRACK 66 AUDIO
    TITLE "12:cjc034_05837"
    INDEX 01 01:36:68
  TRACK 67 AUDIO
    TITLE "0:"
    INDEX 01 01:38:08
  TRACK 68 AUDIO
    TITLE "13:cjc034_05838"
    INDEX 01 01:38:43
  TRACK 69 AUDIO
    TITLE "0:"
    INDEX 01 01:41:14
  TRACK 70 AUDIO
    TITLE "14:cjc034_05839"
    INDEX 01 01:41:46
  TRACK 71 AUDIO
    TITLE "0:"
    INDEX 01 01:42:61
  TRACK 72 AUDIO
    TITLE "15:cjc034_05840"
    INDEX 01 01:43:21
  TRACK 73 AUDIO
    TITLE "0:"
    INDEX 01 01:48:56
